<?xml version="1.0" encoding="utf-8"?>
<!-- Generator: Adobe Illustrator 16.0.0, SVG Export Plug-In . SVG Version: 6.00 Build 0)  -->
<!DOCTYPE svg PUBLIC "-//W3C//DTD SVG 1.1//EN" "http://www.w3.org/Graphics/SVG/1.1/DTD/svg11.dtd">
<svg version="1.1" id="Layer_1" xmlns="http://www.w3.org/2000/svg" xmlns:xlink="http://www.w3.org/1999/xlink" x="0px" y="0px"
	 width="24px" height="11px" viewBox="0 0 24 11" enable-background="new 0 0 24 11" xml:space="preserve">
<g>
	<g>
		<polygon fill-rule="evenodd" clip-rule="evenodd" points="23,5 23,4 22,4 22,3 21,3 21,2 20,2 20,1 19,1 19,0 18,0 18,5 0,5 0,6 
			18,6 18,11 19,11 19,10 20,10 20,9 21,9 21,8 22,8 22,7 23,7 23,6 24,6 24,5 		"/>
	</g>
</g>
</svg>
