<?xml version="1.0" encoding="utf-8"?>
<!-- Generator: Adobe Illustrator 16.0.0, SVG Export Plug-In . SVG Version: 6.00 Build 0)  -->
<!DOCTYPE svg PUBLIC "-//W3C//DTD SVG 1.1//EN" "http://www.w3.org/Graphics/SVG/1.1/DTD/svg11.dtd">
<svg version="1.1" id="Layer_1" xmlns="http://www.w3.org/2000/svg" xmlns:xlink="http://www.w3.org/1999/xlink" x="0px" y="0px"
	 width="4px" height="4px" viewBox="0 0 4 4" enable-background="new 0 0 4 4" xml:space="preserve">
<g>
	<path fill="#DAD9D9" d="M-20,22.984h1v1h-1V22.984z M-19,21.984h1v1h-1V21.984z M-18,20.984h1v1h-1V20.984z M-17,19.984h1v1h-1
		V19.984z M-16,18.984h1v1h-1V18.984z M-15,17.984h1v1h-1V17.984z M-14,16.984h1v1h-1V16.984z M-13,15.984h1v1h-1V15.984z
		 M-12,14.984h1v1h-1V14.984z M-11,13.984h1v1h-1V13.984z M-10,12.984h1v1h-1V12.984z M-9,11.984h1v1h-1V11.984z M-3,5.984h1v1h-1
		V5.984z M-2,4.984h1v1h-1V4.984z M-1,3.984h1v1h-1V3.984z M0,2.984h1v1H0V2.984z M1,1.984h1v1H1V1.984z M2,0.984h1v1H2V0.984z
		 M3-0.016h1v1H3V-0.016z M4-1.016h1v1H4V-1.016z M5-2.016h1v1H5V-2.016z M6-3.016h1v1H6V-3.016z M7-4.016h1v1H7V-4.016z M8-5.016h1
		v1H8V-5.016z M9-6.016h1v1H9V-6.016z M10-7.016h1v1h-1V-7.016z M11-8.016h1v1h-1V-8.016z M12-9.016h1v1h-1V-9.016z M13-10.016h1v1
		h-1V-10.016z M14-11.016h1v1h-1V-11.016z M15-12.016h1v1h-1V-12.016z"/>
</g>
</svg>
